<svg width="67" height="42" viewBox="0 0 67 42" fill="none" xmlns="http://www.w3.org/2000/svg">
<path d="M22.8462 38.5002C25.82 38.5002 28.2308 36.0895 28.2308 33.1156C28.2308 30.1416 25.82 27.731 22.8462 27.731C19.8723 27.731 17.4615 30.1416 17.4615 33.1156C17.4615 36.0895 19.8723 38.5002 22.8462 38.5002Z" stroke="#FFF0F0" stroke-width="6.21818" stroke-miterlimit="1.5" stroke-linecap="round" stroke-linejoin="round"/>
<path d="M49.7693 38.5002C52.7432 38.5002 55.1539 36.0895 55.1539 33.1156C55.1539 30.1416 52.7432 27.731 49.7693 27.731C46.7953 27.731 44.3846 30.1416 44.3846 33.1156C44.3846 36.0895 46.7953 38.5002 49.7693 38.5002Z" stroke="#FFF0F0" stroke-width="6.21818" stroke-miterlimit="1.5" stroke-linecap="round" stroke-linejoin="round"/>
<path d="M28.3654 33.1154H41.6923V5.11538C41.6923 4.22323 40.9692 3.5 40.0769 3.5H4" stroke="#FFF0F0" stroke-width="6.21818" stroke-linecap="round"/>
<path d="M16.5192 33.1153H11C10.1078 33.1153 9.38458 32.3922 9.38458 31.4999V18.3076" stroke="#FFF0F0" stroke-width="6.21818" stroke-linecap="round"/>
<path d="M6.69232 11.5771H17.4616" stroke="#FFF0F0" stroke-width="6.21818" stroke-linecap="round" stroke-linejoin="round"/>
<path d="M41.6923 11.5771H56.7964C57.4348 11.5771 58.0134 11.9531 58.2726 12.5365L63.0916 23.3791C63.1834 23.5859 63.2308 23.8094 63.2308 24.0353V31.5002C63.2308 32.3925 62.5076 33.1156 61.6154 33.1156H56.5" stroke="#FFF0F0" stroke-width="6.21818" stroke-linecap="round"/>
<path d="M41.6923 33.1152H44.3846" stroke="#FFF0F0" stroke-width="6.21818" stroke-linecap="round"/>
</svg>
